<svg version="1.2" xmlns="http://www.w3.org/2000/svg" viewBox="0 0 670 587" width="670" height="587">
	<title>icon-svg</title>
	<style>
		.s0 { fill: #b3b3b3 } 
		.s1 { fill: #0071bc } 
		.s2 { opacity: .2;fill: #000000 } 
		.s3 { fill: #ffffff } 
	</style>
	<path id="Layer" class="s0" d="m44 54.8c0-29.2 23.6-52.8 52.8-52.8h475.4c29.2 0 52.8 23.6 52.8 52.8v243.4c0 29.2-23.6 52.8-52.8 52.8h-475.4c-29.2 0-52.8-23.6-52.8-52.8z"/>
	<path id="Layer" class="s1" d="m629.1 587h-589.2c-22 0-39.9-20.7-39.9-46.2l30-229.8-30-229.8c0-25.5 17.9-46.2 39.9-46.2h589.2c22 0 39.9 20.7 39.9 46.2l-28 229.8 28 229.8c0 25.5-17.9 46.2-39.9 46.2z"/>
	<path id="Layer" class="s2" d="m30.3 311l-30-229.8c0-25.5 17.9-46.2 39.9-46.2h589.2c22 0 39.9 20.7 39.9 46.2l-28 229.8z"/>
	<path id="Layer" class="s3" d="m328.5 290c-42.9 0-77.5-34.6-77.5-77.5 0-42.9 34.6-77.5 77.5-77.5 42.9 0 77.5 34.6 77.5 77.5 0 42.9-34.6 77.5-77.5 77.5z"/>
	<path id="Layer" class="s3" d="m272.2 352h124.6c16.2 0 32.2 3.2 47.2 9.4 14.9 6.2 28.5 15.2 39.9 26.7 11.5 11.4 20.5 25 26.7 39.9 6.2 15 9.4 31 9.4 47.2 0 3.4-0.7 6.7-2 9.9-1.3 3.1-3.2 5.9-5.6 8.3-2.4 2.4-5.2 4.3-8.3 5.6-3.2 1.3-6.5 2-9.9 2h-319.4c-3.4 0-6.7-0.7-9.9-2-3.1-1.3-5.9-3.2-8.3-5.6-2.4-2.4-4.3-5.2-5.6-8.3-1.3-3.2-2-6.5-2-9.9 0-16.2 3.2-32.2 9.4-47.2 6.2-14.9 15.2-28.5 26.7-39.9 11.4-11.5 25-20.5 39.9-26.7 15-6.2 31-9.4 47.2-9.4z"/>
</svg>

